#!OML:ASF H:\Not Pregnant\Project 1\Capture day 1\Session 1\non-pregnant.ASF
:FULLY-SPECIFIED
:DEGREES
656
root -5.71423 16.3215 34.6657 172.871 -80.3358 -160.091
lowerback -13.4468 3.30027 2.6914
upperback -5.83263 3.75516 -0.665679
thorax 1.61196 1.70137 -1.65838
lowerneck 4.33449 -3.9807 -28.95
upperneck 1.85041 -8.35028 35.605
head 2.72168 -4.87915 17.9344
rclavicle 9.29318e-015 -3.1408e-014
rhumerus -35.8863 7.10557 -94.1299
rradius 24.8033
rwrist 25.6178
rhand -9.03346 3.78314
rfingers 7.12502
rthumb 16.9142 -25.5003
lclavicle 9.29318e-015 -3.1408e-014
lhumerus -40.7313 -9.08446 90.8832
lradius 31.1803
lwrist 41.4527
lhand 2.46911 -9.32232
lfingers 7.12502
lthumb 27.9531 18.6167
rfemur -10.3222 -5.60429 22.082
rtibia 8.04121
rfoot -13.0009 13.3726
rtoes -10.9408
lfemur -13.6338 3.44308 -15.3985
ltibia 12.492
lfoot -13.2148 -5.72998
ltoes -22.0084
657
root -5.71524 16.3216 34.6665 172.764 -80.3471 -159.972
lowerback -13.4541 3.31495 2.69884
upperback -5.82686 3.77408 -0.674836
thorax 1.62394 1.71099 -1.66863
lowerneck 4.28139 -3.96946 -28.916
upperneck 1.90127 -8.32631 35.5836
head 2.73309 -4.86106 17.9163
rclavicle 3.37934e-015 1.19271e-015
rhumerus -35.8355 6.97189 -94.0761
rradius 24.7825
rwrist 25.6947
rhand -9.00563 3.80046
rfingers 7.12502
rthumb 16.941 -25.4807
lclavicle 3.37934e-015 1.19271e-015
lhumerus -40.682 -9.00286 90.8369
lradius 31.1603
lwrist 41.7026
lhand 2.77128 -9.07493
lfingers 7.12502
lthumb 28.242 18.8167
rfemur -10.2989 -5.61758 22.1019
rtibia 7.98519
rfoot -12.9744 13.3821
rtoes -10.9299
lfemur -13.6586 3.44318 -15.3842
ltibia 12.5162
lfoot -13.2281 -5.7424
ltoes -21.9875
658
root -5.71635 16.3217 34.6672 172.652 -80.3562 -159.85
lowerback -13.4606 3.33227 2.70602
upperback -5.81926 3.79677 -0.686796
thorax 1.63775 1.72257 -1.68105
lowerneck 4.21961 -3.96144 -28.872
upperneck 1.95183 -8.30397 35.5581
head 2.74603 -4.84286 17.893
rclavicle -2.70844e-015 5.56597e-015
rhumerus -35.7838 6.83157 -94.0283
rradius 24.7597
rwrist 25.7837
rhand -8.96593 3.82305
rfingers 7.12502
rthumb 16.9792 -25.4548
lclavicle -2.70844e-015 5.56597e-015
lhumerus -40.637 -8.96904 90.8138
lradius 31.1144
lwrist 41.7489
lhand 2.99461 -8.92889
lfingers 7.12502
lthumb 28.4554 18.9272
rfemur -10.2759 -5.62876 22.1226
rtibia 7.93327
rfoot -12.9488 13.3905
rtoes -10.9058
lfemur -13.679 3.44399 -15.3676
ltibia 12.5373
lfoot -13.2397 -5.75248
ltoes -21.9656
659
root -5.71751 16.3219 34.6675 172.567 -80.366 -159.751
lowerback -13.4695 3.34838 2.70467
upperback -5.81126 3.8189 -0.700974
thorax 1.65284 1.73399 -1.69095
lowerneck 4.14396 -3.95804 -28.8192
upperneck 2.00323 -8.28417 35.5271
head 2.76215 -4.8245 17.8639
rclavicle -3.82164e-014 1.70955e-014
rhumerus -35.7338 6.67926 -93.9849
rradius 24.7365
rwrist 25.8984
rhand -8.92071 3.84457
rfingers 7.12502
rthumb 17.0228 -25.4296
lclavicle -3.82164e-014 1.70955e-014
lhumerus -40.597 -8.97394 90.8144
lradius 31.0449
lwrist 41.5669
lhand 3.10245 -8.88685
lfingers 7.12502
lthumb 28.5585 18.952
rfemur -10.2558 -5.63981 22.1406
rtibia 7.88037
rfoot -12.9222 13.3997
rtoes -10.8724
lfemur -13.703 3.44871 -15.3549
ltibia 12.5584
lfoot -13.2512 -5.76589
ltoes -21.9485
660
root -5.71879 16.3221 34.6676 172.479 -80.3743 -159.65
lowerback -13.4785 3.36634 2.70476
upperback -5.8004 3.84359 -0.718897
thorax 1.67152 1.74678 -1.70504
lowerneck 4.05151 -3.96052 -28.7538
upperneck 2.05684 -8.26832 35.4904
head 2.7827 -4.80644 17.8276
rclavicle -7.8023e-015 2.78299e-015
rhumerus -35.6828 6.51872 -93.9463
rradius 24.712
rwrist 26.0293
rhand -8.88017 3.87122
rfingers 7.12502
rthumb 17.0618 -25.3995
lclavicle -7.8023e-015 2.78299e-015
lhumerus -40.5586 -9.03477 90.8384
lradius 30.9512
lwrist 41.186
lhand 3.10286 -8.9505
lfingers 7.12502
lthumb 28.5588 18.8883
rfemur -10.2334 -5.6492 22.1605
rtibia 7.82525
rfoot -12.8966 13.4071
rtoes -10.8403
lfemur -13.727 3.4603 -15.3412
ltibia 12.5819
lfoot -13.2659 -5.78657
ltoes -21.9333
661
root -5.72015 16.3222 34.6678 172.384 -80.3836 -159.541
lowerback -13.4886 3.38036 2.70883
upperback -5.78637 3.86258 -0.733353
thorax 1.69383 1.75685 -1.71847
lowerneck 3.94114 -3.96401 -28.6964
upperneck 2.116 -8.25016 35.4503
head 2.80764 -4.78554 17.7912
rclavicle 3.37934e-014 5.96354e-015
rhumerus -35.6278 6.33738 -93.9
rradius 24.6771
rwrist 26.2083
rhand -8.85064 3.90335
rfingers 7.12502
rthumb 17.0902 -25.365
lclavicle 3.37934e-014 5.96354e-015
lhumerus -40.5133 -9.0947 90.857
lradius 30.8477
lwrist 40.7402
lhand 3.10263 -9.04255
lfingers 7.12502
lthumb 28.5586 18.7962
rfemur -10.21 -5.65978 22.1816
rtibia 7.769
rfoot -12.8726 13.4134
rtoes -10.8128
lfemur -13.7529 3.47291 -15.3268
ltibia 12.6096
lfoot -13.2829 -5.8107
ltoes -21.9177
662
root -5.72157 16.3222 34.6679 172.277 -80.3935 -159.422
lowerback -13.4991 3.39186 2.71763
upperback -5.76906 3.87774 -0.745097
thorax 1.71972 1.76514 -1.73217
lowerneck 3.8169 -3.96848 -28.6504
upperneck 2.17739 -8.23059 35.4109
head 2.83607 -4.76279 17.7577
rclavicle 1.08735e-013 2.94201e-014
rhumerus -35.5749 6.17201 -93.8529
rradius 24.6413
rwrist 26.3915
rhand -8.82789 3.95143
rfingers 7.12502
rthumb 17.1121 -25.315
lclavicle 1.08735e-013 2.94201e-014
lhumerus -40.453 -9.13289 90.8482
lradius 30.7609
lwrist 40.4191
lhand 3.1706 -9.06135
lfingers 7.12502
lthumb 28.6236 18.7665
rfemur -10.1852 -5.67124 22.2042
rtibia 7.71155
rfoot -12.8505 13.4164
rtoes -10.7996
lfemur -13.782 3.49176 -15.3119
ltibia 12.6441
lfoot -13.3047 -5.84082
ltoes -21.9018
663
root -5.72302 16.3221 34.6681 172.155 -80.4032 -159.286
lowerback -13.5108 3.4027 2.73392
upperback -5.74858 3.89118 -0.755843
thorax 1.74987 1.77262 -1.74913
lowerneck 3.68125 -3.97449 -28.6155
upperneck 2.23959 -8.21104 35.3745
head 2.86778 -4.73925 17.7281
rclavicle 1.82385e-014 1.59028e-015
rhumerus -35.5152 5.97844 -93.7962
rradius 24.5909
rwrist 26.6237
rhand -8.81598 4.02504
rfingers 7.12502
rthumb 17.1236 -25.2404
lclavicle 1.82385e-014 1.59028e-015
lhumerus -40.371 -9.1324 90.7969
lradius 30.7014
lwrist 40.3033
lhand 3.33942 -8.95766
lfingers 7.12502
lthumb 28.7848 18.8429
rfemur -10.1617 -5.68284 22.2294
rtibia 7.65595
rfoot -12.8317 13.417
rtoes -10.8035
lfemur -13.8153 3.51628 -15.2953
ltibia 12.6859
lfoot -13.333 -5.87408
ltoes -21.8922
664
root -5.72446 16.3219 34.6684 172.026 -80.4135 -159.143
lowerback -13.5231 3.41161 2.75785
upperback -5.72652 3.90116 -0.766484
thorax 1.78236 1.77838 -1.77069
lowerneck 3.54214 -3.98029 -28.5909
upperneck 2.29816 -8.19023 35.3429
head 2.89964 -4.71506 17.7036
rclavicle -2.00773e-014 -2.22639e-014
rhumerus -35.4664 5.84848 -93.7564
rradius 24.5536
rwrist 26.8111
rhand -8.80364 4.09416
rfingers 7.12502
rthumb 17.1354 -25.1702
lclavicle -2.00773e-014 -2.22639e-014
lhumerus -40.2717 -9.08836 90.6993
lradius 30.6749
lwrist 40.4263
lhand 3.61388 -8.73075
lfingers 7.12502
lthumb 29.047 19.0249
rfemur -10.1428 -5.69565 22.2539
rtibia 7.60604
rfoot -12.8147 13.4162
rtoes -10.8096
lfemur -13.8526 3.53646 -15.2782
ltibia 12.7334
lfoot -13.3639 -5.90138
ltoes -21.8782
665
root -5.72595 16.3216 34.6692 171.902 -80.4262 -159.006
lowerback -13.5375 3.42336 2.79207
upperback -5.70116 3.91399 -0.785722
thorax 1.82078 1.78555 -1.80628
lowerneck 3.39966 -3.99008 -28.5575
upperneck 2.34787 -8.17282 35.3142
head 2.93091 -4.69246 17.6779
rclavicle -1.32192e-014 -2.38542e-015
rhumerus -35.4236 5.76876 -93.7329
rradius 24.5316
rwrist 26.9485
rhand -8.78085 4.15657
rfingers 7.12502
rthumb 17.1574 -25.1059
lclavicle -1.32192e-014 -2.38542e-015
lhumerus -40.1582 -9.04372 90.5624
lradius 30.6819
lwrist 40.7734
lhand 3.98671 -8.41473
lfingers 7.12502
lthumb 29.403 19.279
rfemur -10.1278 -5.71144 22.2733
rtibia 7.56361
rfoot -12.8028 13.4137
rtoes -10.8349
lfemur -13.8918 3.54414 -15.2638
ltibia 12.7852
lfoot -13.3945 -5.91929
ltoes -21.843
666
root -5.72743 16.3213 34.6698 171.791 -80.4379 -158.883
lowerback -13.5502 3.44454 2.82748
upperback -5.67502 3.93971 -0.817178
thorax 1.86082 1.79914 -1.85328
lowerneck 3.26805 -4.00695 -28.5014
upperneck 2.3809 -8.16563 35.2891
head 2.95865 -4.67611 17.6477
rclavicle -1.31198e-014 9.93923e-015
rhumerus -35.3861 5.67345 -93.7134
rradius 24.5207
rwrist 27.0791
rhand -8.75251 4.20934
rfingers 7.12502
rthumb 17.1847 -25.0508
lclavicle -1.31198e-014 9.93923e-015
lhumerus -40.0373 -9.03301 90.4084
lradius 30.6901
lwrist 41.138
lhand 4.35288 -8.12102
lfingers 7.12502
lthumb 29.7525 19.5108
rfemur -10.1163 -5.72629 22.2894
rtibia 7.52906
rfoot -12.7934 13.4133
rtoes -10.8502
lfemur -13.9316 3.55817 -15.2515
ltibia 12.8401
lfoot -13.4273 -5.94412
ltoes -21.7938
667
root -5.72894 16.3209 34.6705 171.685 -80.4507 -158.766
lowerback -13.5629 3.47228 2.86176
upperback -5.64614 3.97467 -0.855272
thorax 1.90464 1.8175 -1.90498
lowerneck 3.13935 -4.03023 -28.4295
upperneck 2.40297 -8.16655 35.2652
head 2.98531 -4.66414 17.6134
rclavicle 9.44227e-016 1.90833e-014
rhumerus -35.3496 5.54469 -93.6885
rradius 24.5186
rwrist 27.2261
rhand -8.71507 4.25269
rfingers 7.12502
rthumb 17.2207 -25.0043
lclavicle 9.44227e-016 1.90833e-014
lhumerus -39.9083 -9.05799 90.2451
lradius 30.6996
lwrist 41.532
lhand 4.71718 -7.85977
lfingers 7.12502
lthumb 30.1002 19.7093
rfemur -10.1076 -5.74237 22.3023
rtibia 7.50139
rfoot -12.7849 13.4165
rtoes -10.8483
lfemur -13.9725 3.5771 -15.2414
ltibia 12.8978
lfoot -13.4611 -5.97572
ltoes -21.7366
668
root -5.73048 16.3206 34.6715 171.592 -80.4655 -158.661
lowerback -13.575 3.50295 2.89469
upperback -5.61453 4.01392 -0.894876
thorax 1.95139 1.83818 -1.95673
lowerneck 3.00314 -4.06013 -28.3546
upperneck 2.42429 -8.17555 35.241
head 3.01614 -4.65558 17.5773
rclavicle -2.98177e-014 -2.82274e-014
rhumerus -35.319 5.39903 -93.6493
rradius 24.527
rwrist 27.3824
rhand -8.67571 4.29765
rfingers 7.12502
rthumb 17.2586 -24.956
lclavicle -2.98177e-014 -2.82274e-014
lhumerus -39.7789 -9.13448 90.0992
lradius 30.6852
lwrist 41.7989
lhand 4.9879 -7.73433
lfingers 7.12502
lthumb 30.3584 19.7874
rfemur -10.1011 -5.76077 22.3103
rtibia 7.47921
rfoot -12.7777 13.4198
rtoes -10.8361
lfemur -14.0153 3.60891 -15.2365
ltibia 12.9587
lfoot -13.4968 -6.02613
ltoes -21.6552
